<?xml version="1.0" encoding="UTF-8"?>
<svg version="1.1" xmlns="http://www.w3.org/2000/svg" width="2000" height="1326">
<path d="M0 0 C660 0 1320 0 2000 0 C2000 437.58 2000 875.16 2000 1326 C1340 1326 680 1326 0 1326 C0 888.42 0 450.84 0 0 Z " fill="#FEFEFE" transform="translate(0,0)"/>
<path d="M0 0 C4.73026613 3.88932993 9.04644753 9.13934258 11 15 C11.05154461 17.12478335 11.09157074 19.24985445 11.125 21.375 C11.73763694 29.63301022 14.54654405 35.16189803 19 42 C19.47195801 42.73154297 19.94391602 43.46308594 20.43017578 44.21679688 C26.85316379 54.10935427 33.52271079 63.83826302 40.17269897 73.5788269 C43.35020921 78.23604091 46.52062367 82.89804962 49.6875 87.5625 C50.32514282 88.50125977 50.96278564 89.44001953 51.61975098 90.40722656 C59.31259658 101.75612166 66.85302681 113.06803829 73.23706055 125.21704102 C76.27562241 130.98977661 79.87277457 135.95378149 84 141 C88.76971064 146.99548181 92.47389687 153.19692058 96 160 C96.6496875 161.18722656 96.6496875 161.18722656 97.3125 162.3984375 C99.8324734 167.13913746 101.61343285 171.8025187 103.1875 176.9375 C105.5645708 184.45954135 109.02733577 191.12114512 112.78515625 198.03515625 C116.61778625 205.08894608 120.27267975 212.23341379 123.93789673 219.37512207 C125.09123954 221.62173745 126.24690811 223.86714222 127.40307617 226.11230469 C129.61106565 230.4036199 131.80917695 234.69989681 134 239 C134.35666748 239.69966888 134.71333496 240.39933777 135.08081055 241.12020874 C139.40384893 249.6208603 143.51903453 258.15623095 147.25 266.9375 C148.06738883 268.84258503 148.88509283 270.74753487 149.703125 272.65234375 C150.08799072 273.55130371 150.47285645 274.45026367 150.86938477 275.37646484 C152.91299766 280.11856464 155.0086786 284.83711694 157.16015625 289.53125 C158.79722168 293.10302912 160.23080852 296.61455783 161.375 300.375 C163.93452035 308.20332022 167.6520599 314.81335639 173.4375 320.6875 C179.31853125 326.87545375 181.86109744 334.20629443 185 342 C185.68577515 343.42772301 186.38864321 344.84769503 187.125 346.25 C189.21272806 350.29332142 190.87583265 354.49213247 192.59375 358.703125 C194.05728799 362.13430851 195.67424334 365.46152048 197.3125 368.8125 C200.91241502 376.2730204 203.56394972 384.02198845 206.15942383 391.88012695 C208.04133037 397.51904743 210.16354644 402.77503191 213 408 C213.73863281 409.38638672 213.73863281 409.38638672 214.4921875 410.80078125 C214.94851563 411.62964844 215.40484375 412.45851563 215.875 413.3125 C216.64070313 414.70855469 216.64070313 414.70855469 217.421875 416.1328125 C217.94265625 417.07898438 218.4634375 418.02515625 219 419 C220.55004001 421.81616179 222.09580419 424.63279627 223.609375 427.46875 C224.91737969 429.93322721 224.91737969 429.93322721 226.265625 431.90625 C230.6656156 438.97102364 229.99017565 448.62359171 228.52734375 456.56640625 C226.45601582 462.90442166 222.04119339 467.99473871 216.375 471.375 C209.15376464 474.8518911 200.30998659 475.48205367 192.55078125 473.31640625 C190.53429042 472.3616434 188.80711296 471.30649383 187 470 C186.38640625 469.57589844 185.7728125 469.15179688 185.140625 468.71484375 C180.19738556 464.92291435 177.70155763 460.52521956 175 455 C174.35265415 453.70257975 173.70412106 452.40575149 173.0546875 451.109375 C172.01071158 449.02528171 170.96954491 446.9402211 169.94165039 444.84814453 C168.3474128 441.61504185 166.70610247 438.4415219 164.89453125 435.32421875 C161.14842352 428.75115138 158.58211622 421.69808439 156.078125 414.578125 C155.73555664 413.61011963 155.39298828 412.64211426 155.04003906 411.64477539 C154.35964135 409.71011401 153.68929217 407.77188188 153.03027344 405.82983398 C151.55949671 401.64197905 150.18292365 397.96990704 147.44921875 394.4453125 C144.33608953 390.42057448 143.21556842 386.01969618 141.8125 381.1875 C139.50732807 373.80106309 136.78654446 367.00443498 133 360.25 C132.41375854 359.19848755 132.41375854 359.19848755 131.81567383 358.12573242 C129.64543531 354.39356296 127.26215172 351.00218551 124.5625 347.6328125 C120.81489121 342.90774298 117.86238426 337.92370835 115 332.625 C114.48236084 331.67109375 113.96472168 330.7171875 113.43139648 329.734375 C108.15482929 319.77403912 104.50913149 309.47683261 100.93383789 298.82299805 C97.95273757 290.18353419 94.34986562 282.00408401 90.3125 273.8125 C89.68291766 272.52218535 89.0536087 271.23173727 88.42456055 269.94116211 C84.80764153 262.54597128 81.07219427 255.22245021 77.18969727 247.96313477 C72.84853755 239.80419286 68.68423365 231.55605412 64.53305054 223.29928589 C63.6910801 221.62637956 62.84693323 219.95456648 62.00039673 218.28396606 C57.31930154 209.0403036 52.93624472 199.82175473 49.26196289 190.12866211 C46.43805771 183.12762809 42.2894625 177.32830389 37.69140625 171.390625 C33.47268006 165.8418883 30.06848088 160.05534712 26.75 153.9375 C16.92220272 136.34475928 5.29101307 119.90001584 -6.06921387 103.27748108 C-10.84739419 96.26850891 -15.47318446 89.17383902 -20 82 C-20.55606934 82.4122583 -21.11213867 82.8245166 -21.68505859 83.24926758 C-23.01139323 84.23258464 -24.33772786 85.21590169 -25.6640625 86.19921875 C-26.43492187 86.79347656 -27.20578125 87.38773437 -28 88 C-28.94488281 88.63679688 -29.88976562 89.27359375 -30.86328125 89.9296875 C-35.6384392 93.96597637 -37.90323544 99.91377254 -40.5625 105.4375 C-41.17331415 106.6864113 -41.78440375 107.93518792 -42.39575195 109.18383789 C-51.93690839 128.80987954 -60.36687062 148.86048847 -67.97290039 169.31176758 C-71.01874454 177.49341456 -74.26733447 185.56695376 -77.625 193.625 C-84.44382303 210.08819206 -89.88666648 226.9766859 -95.07250977 244.01416016 C-95.69919111 246.0316155 -96.37591414 248.03409832 -97.09765625 250.01953125 C-98.02484894 253.0820768 -98.26784422 255.58325515 -98.30859375 258.7734375 C-98.33373047 259.8459375 -98.35886719 260.9184375 -98.38476562 262.0234375 C-98.41979807 264.2499437 -98.45107498 266.47651229 -98.47851562 268.703125 C-98.69596767 277.54971044 -99.9109976 284.72893021 -106.16015625 291.390625 C-113.01529472 297.38705185 -119.76724421 298.73696655 -128.74609375 298.33984375 C-138.87606263 297.2818518 -146.51636147 291.3909367 -152.98828125 283.609375 C-153.59027344 282.81015625 -154.19226563 282.0109375 -154.8125 281.1875 C-159.48164798 275.03487527 -165.24190592 270.41072692 -171.16650391 265.5234375 C-173.50803798 263.57787523 -175.80991625 261.58885942 -178.11157227 259.59643555 C-186.61265259 252.24233607 -195.30203066 245.11896717 -204 238 C-204.97710938 237.19820312 -205.95421875 236.39640625 -206.9609375 235.5703125 C-208.6897855 234.15296865 -210.42024614 232.7375895 -212.15234375 231.32421875 C-214.31429765 229.55966104 -216.47246176 227.79079668 -218.62890625 226.01953125 C-225.55688382 220.3442297 -232.54612513 214.77995847 -239.6875 209.375 C-245.99198221 204.60173921 -252.0816468 199.64562841 -258.07421875 194.48828125 C-260.75094713 192.21181132 -263.4781696 190.03370663 -266.25 187.875 C-270.49876439 184.51743985 -274.27008098 180.83563917 -278.04296875 176.95703125 C-280.03071713 174.89155923 -280.03071713 174.89155923 -282.625 172.9375 C-284.74460289 171.20835027 -286.21077678 169.59520509 -287.9375 167.5 C-292.74338048 161.8827371 -298.45417162 157.32111274 -304.10644531 152.59082031 C-307.23782198 149.96007633 -310.33607786 147.29092116 -313.4375 144.625 C-314.5402062 143.67950275 -315.64306578 142.73418435 -316.74609375 141.7890625 C-317.27436768 141.3353125 -317.8026416 140.8815625 -318.34692383 140.4140625 C-319.51493643 139.41492958 -320.68705788 138.4205905 -321.86206055 137.4296875 C-322.47734619 136.90890625 -323.09263184 136.388125 -323.7265625 135.8515625 C-324.2829541 135.38314941 -324.8393457 134.91473633 -325.41259766 134.43212891 C-327.93460658 132.15681295 -329.96153307 129.71795591 -332 127 C-332 126.34 -332 125.68 -332 125 C-332.66 125 -333.32 125 -334 125 C-333.97679687 126.25554687 -333.95359375 127.51109375 -333.9296875 128.8046875 C-333.91090863 130.49478565 -333.89271073 132.18489032 -333.875 133.875 C-333.85824219 134.69742188 -333.84148437 135.51984375 -333.82421875 136.3671875 C-333.7832339 141.61324781 -334.37687501 146.32526861 -335.50537109 151.44091797 C-336.37936845 155.96275425 -336.57564304 160.53575085 -336.875 165.125 C-337.4846959 173.4611706 -338.50200089 181.59095533 -340 189.8125 C-341.76883051 199.58816682 -342.64871977 209.26805876 -343.28125 219.17675781 C-344.05948705 230.94247318 -345.51552228 242.61603481 -348.125 254.125 C-348.88505113 257.65163724 -349.11620735 261.06604393 -349.23706055 264.66943359 C-349.52708385 273.14862635 -350.68299855 281.17504611 -352.3125 289.5 C-355.0727192 303.90356026 -356.41853843 318.3275655 -357.71665955 332.92356873 C-357.79727127 333.82922073 -357.877883 334.73487274 -357.9609375 335.66796875 C-358.04215347 336.58324844 -358.12336945 337.49852814 -358.20704651 338.44154358 C-359.27572601 350.31475019 -360.61155271 362.15972562 -361.94140625 374.00604248 C-363.21861998 385.38501645 -364.37612387 396.76274308 -365.3274231 408.17411804 C-365.78617058 413.66888177 -366.3189597 419.1458179 -366.9375 424.625 C-367.07067627 425.82974976 -367.07067627 425.82974976 -367.20654297 427.05883789 C-367.57853743 430.35347153 -367.95617125 433.64660867 -368.36425781 436.93701172 C-370.5562634 454.67158791 -371.42939952 472.15349024 -371.53344727 490.01391602 C-371.64837488 502.05154613 -372.01388816 512.95357869 -381 522 C-389.14977126 528.31253959 -396.82298035 528.83194002 -407 528 C-410.039315 527.09056156 -412.41138733 525.81202887 -415 524 C-415.886875 523.443125 -416.77375 522.88625 -417.6875 522.3125 C-424.02537939 515.97462061 -426.15273412 508.68189743 -426.2734375 499.9453125 C-426.28596558 499.1184343 -426.29849365 498.29155609 -426.31140137 497.43962097 C-426.64678804 469.55064503 -424.37719392 442.20911996 -421.37683105 414.50421143 C-420.73821657 408.5656346 -420.12433959 402.6244969 -419.5078125 396.68359375 C-418.63510597 388.29530343 -417.75195076 379.90823475 -416.85552979 371.52244568 C-415.7493323 361.17208769 -414.67178178 350.81983502 -413.6484375 340.4609375 C-411.66296254 320.4060268 -409.58010905 300.46525948 -406.39794922 280.56005859 C-405.08240931 272.09702087 -404.18253113 263.59385509 -403.54296875 255.0546875 C-403.46256348 254.00240967 -403.3821582 252.95013184 -403.29931641 251.8659668 C-403.14678119 249.81869264 -403.00377849 247.77067462 -402.87255859 245.72192383 C-402.5015226 240.66005468 -401.81908557 235.97199888 -400.49609375 231.06640625 C-398.82548043 224.80300314 -398.34306455 218.70585112 -398 212.25 C-397.61594044 205.12744088 -396.9422309 198.23184027 -395.53515625 191.234375 C-393.85636049 182.86154606 -393.09259963 174.50558783 -392.4375 166 C-392.2687418 163.83552435 -392.09728629 161.67142151 -391.91773987 159.5078125 C-391.75682566 157.56694312 -391.60548692 155.62528657 -391.45483398 153.68359375 C-391 150 -391 150 -390.00967407 146.32382202 C-388.88751413 141.92345385 -388.56646404 137.66113605 -388.39038086 133.13525391 C-388.35292975 132.31090662 -388.31547865 131.48655933 -388.27689266 130.63723183 C-387.94458461 122.82402076 -387.82234537 115.01078987 -387.77020454 107.19132614 C-387.75331789 104.75090919 -387.73009333 102.31061871 -387.70530701 99.87026978 C-387.63571419 92.94889941 -387.57417185 86.02749005 -387.52319336 79.10595703 C-387.49126822 74.83049915 -387.45000382 70.5552132 -387.40299797 66.27989578 C-387.38711372 64.66853541 -387.3747306 63.05713618 -387.36609077 61.44572067 C-387.29530991 48.4637925 -387.07118585 38.19896188 -377.51953125 28.49609375 C-370.88728294 22.53951685 -364.96646104 21.42885542 -356.29296875 21.6484375 C-348.75411615 22.45329721 -342.85498183 25.09529237 -338 31 C-337.42378906 31.69609375 -336.84757813 32.3921875 -336.25390625 33.109375 C-333.66836967 36.31307521 -331.34559182 39.24598148 -329.625 43 C-327.40422096 47.09989976 -324.24583861 49.87471594 -320.86328125 53.046875 C-319 55 -319 55 -319 57 C-318.34 57 -317.68 57 -317 57 C-315.4807949 58.79962633 -314.07935169 60.60478248 -312.6875 62.5 C-308.1370389 68.56275786 -303.41789371 74.46446627 -298.61035156 80.32495117 C-295.79579814 83.76315564 -293.06609845 87.2286304 -290.4375 90.8125 C-284.61587242 98.35905427 -276.94474197 104.47782145 -269.5625 110.4375 C-260.77158674 117.54798191 -252.654954 125.28364354 -244.74072266 133.34643555 C-237.48449856 140.72872048 -230.10840279 147.35521854 -221.84814453 153.57519531 C-218.30125173 156.30962945 -214.87954009 159.19808875 -211.4375 162.0625 C-206.52456113 166.13636409 -201.58071687 170.13713287 -196.5 174 C-189.14237136 179.59659221 -182.04598165 185.49955482 -174.93164062 191.40039062 C-171.48479671 194.25475379 -168.01749485 197.0838775 -164.55078125 199.9140625 C-162.75323835 201.38402867 -160.95929511 202.8584021 -159.16796875 204.3359375 C-153.87425812 208.6954639 -148.53771284 212.95382013 -143 217 C-142.86851562 215.62134766 -142.86851562 215.62134766 -142.734375 214.21484375 C-141.94755401 208.78713554 -140.05803023 203.72072699 -138.25 198.5625 C-137.85586914 197.43142822 -137.46173828 196.30035645 -137.05566406 195.13500977 C-133.13306537 184.06681893 -128.72167275 173.21621854 -124.24732971 162.36245728 C-123.82906166 161.34772842 -123.82906166 161.34772842 -123.40234375 160.3125 C-123.1222496 159.63319427 -122.84215546 158.95388855 -122.55357361 158.2539978 C-119.66191605 151.21834146 -116.89864519 144.13381935 -114.13571167 137.046875 C-107.34049944 119.63500959 -100.399376 102.28885474 -91.83129883 85.65795898 C-89.45495254 81.02308678 -87.39226127 76.30038105 -85.375 71.5 C-82.89491716 65.67795172 -80.17939023 60.76105794 -76 56 C-75.47921875 55.32710937 -74.9584375 54.65421875 -74.421875 53.9609375 C-70.59670078 49.18840704 -66.66770813 46.47039379 -61.36328125 43.4921875 C-53.94900332 38.81077565 -50.12878217 30.69272276 -46.80541992 22.87304688 C-42.28245412 12.35464929 -37.80072246 2.25440552 -27 -3 C-18.01016148 -5.81057036 -8.10103875 -4.65087778 0 0 Z " fill="#010101" transform="translate(861,36)"/>
</svg>
